<svg xmlns="http://www.w3.org/2000/svg" width="31" height="31">
    <defs>
        <filter id="a">
            <feFlood flood-color="#FFF" flood-opacity="1" result="floodOut"/>
            <feComposite in="floodOut" in2="SourceGraphic" operator="atop" result="compOut"/>
            <feBlend in="compOut" in2="SourceGraphic"/>
        </filter>
    </defs>
    <path fill="#FFF" fill-rule="evenodd" stroke="#FFF" d="M26.648 26.348a.675.675 0 0 1-.952 0l-5.053-5.053a9.815 9.815 0 0 1-6.477 2.437c-5.449 0-9.867-4.417-9.867-9.866C4.299 8.418 8.717 4 14.166 4c5.449 0 9.865 4.418 9.865 9.866a9.809 9.809 0 0 1-2.436 6.477l5.053 5.053a.673.673 0 0 1 0 .952zM14.166 5.409a8.457 8.457 0 0 0 0 16.913 8.42 8.42 0 0 0 5.623-2.153.666.666 0 0 1 .68-.681 8.403 8.403 0 0 0 2.153-5.622 8.457 8.457 0 0 0-8.456-8.457z" filter="url(#a)"/>
</svg>
